M48
; DRILL file {KiCad 5.1.9} date Mon Aug  9 17:36:00 2021
; FORMAT={3:3/ absolute / metric / suppress leading zeros}
; #@! TF.CreationDate,2021-08-09T17:36:00+02:00
; #@! TF.GenerationSoftware,Kicad,Pcbnew,5.1.9
; #@! TF.FileFunction,Plated,1,2,PTH
FMAT,2
METRIC,TZ
T1C0.800
T2C1.100
T3C1.600
%
G90
G05
T1
X154851Y-61366
X154851Y-71526
X154851Y-81356
X154851Y-91516
X157810Y-81356
X157810Y-91516
X157874Y-61379
X157874Y-71539
T2
X164097Y-91897
X164097Y-94437
X164097Y-96977
X164102Y-80816
X164102Y-83356
X164102Y-85896
X164224Y-58941
X164224Y-61481
X164224Y-64021
X164224Y-69939
X164224Y-72479
X164224Y-75019
T3
X145567Y-70861
X145567Y-74361
X145567Y-77861
X145567Y-81361
X145567Y-84861
X178892Y-69373
X178892Y-72873
X178892Y-76373
X178892Y-79873
X178892Y-83373
X178892Y-86873
X178892Y-90373
T0
M30
