%FSLAX45Y45*%
G04 Gerber Fmt 4.5, Leading zero omitted, Abs format (unit mm)*
G04 Created by KiCad (PCBNEW 5.1.9) date 2021-08-09 17:35:55*
%MOMM*%
%LPD*%
G01*
G04 APERTURE LIST*
%TA.AperFunction,Profile*%
%ADD10C,0.150000*%
%TD*%
%ADD11C,0.200000*%
%ADD12C,0.300000*%
G04 APERTURE END LIST*
D10*
X18278313Y-9899000D02*
G75*
G03*
X18278313Y-9899000I-86313J0D01*
G01*
X14415313Y-9898000D02*
G75*
G03*
X14415313Y-9898000I-86313J0D01*
G01*
X18279313Y-5702000D02*
G75*
G03*
X18279313Y-5702000I-86313J0D01*
G01*
X14416313Y-5700000D02*
G75*
G03*
X14416313Y-5700000I-86313J0D01*
G01*
X18406110Y-10115550D02*
X18403570Y-5483860D01*
X14094460Y-5483860D02*
X14090650Y-10115550D01*
X14090650Y-10115550D02*
X18406110Y-10115550D01*
X18403570Y-5483860D02*
X14094460Y-5483860D01*
D11*
D12*
X14369578Y-10588764D02*
X14369578Y-10288764D01*
X14441007Y-10288764D01*
X14483864Y-10303050D01*
X14512436Y-10331622D01*
X14526721Y-10360193D01*
X14541007Y-10417336D01*
X14541007Y-10460193D01*
X14526721Y-10517336D01*
X14512436Y-10545907D01*
X14483864Y-10574479D01*
X14441007Y-10588764D01*
X14369578Y-10588764D01*
X14669578Y-10588764D02*
X14669578Y-10388764D01*
X14669578Y-10445907D02*
X14683864Y-10417336D01*
X14698150Y-10403050D01*
X14726721Y-10388764D01*
X14755293Y-10388764D01*
X14855293Y-10588764D02*
X14855293Y-10388764D01*
X14855293Y-10288764D02*
X14841007Y-10303050D01*
X14855293Y-10317336D01*
X14869578Y-10303050D01*
X14855293Y-10288764D01*
X14855293Y-10317336D01*
X15041007Y-10588764D02*
X15012436Y-10574479D01*
X14998150Y-10545907D01*
X14998150Y-10288764D01*
X15198150Y-10588764D02*
X15169578Y-10574479D01*
X15155293Y-10545907D01*
X15155293Y-10288764D01*
X15541007Y-10588764D02*
X15541007Y-10288764D01*
X15641007Y-10503050D01*
X15741007Y-10288764D01*
X15741007Y-10588764D01*
X16012436Y-10588764D02*
X16012436Y-10431622D01*
X15998150Y-10403050D01*
X15969578Y-10388764D01*
X15912436Y-10388764D01*
X15883864Y-10403050D01*
X16012436Y-10574479D02*
X15983864Y-10588764D01*
X15912436Y-10588764D01*
X15883864Y-10574479D01*
X15869578Y-10545907D01*
X15869578Y-10517336D01*
X15883864Y-10488764D01*
X15912436Y-10474479D01*
X15983864Y-10474479D01*
X16012436Y-10460193D01*
X16155293Y-10388764D02*
X16155293Y-10688764D01*
X16155293Y-10403050D02*
X16183864Y-10388764D01*
X16241007Y-10388764D01*
X16269578Y-10403050D01*
X16283864Y-10417336D01*
X16298150Y-10445907D01*
X16298150Y-10531622D01*
X16283864Y-10560193D01*
X16269578Y-10574479D01*
X16241007Y-10588764D01*
X16183864Y-10588764D01*
X16155293Y-10574479D01*
X16426721Y-10560193D02*
X16441007Y-10574479D01*
X16426721Y-10588764D01*
X16412436Y-10574479D01*
X16426721Y-10560193D01*
X16426721Y-10588764D01*
X16426721Y-10403050D02*
X16441007Y-10417336D01*
X16426721Y-10431622D01*
X16412436Y-10417336D01*
X16426721Y-10403050D01*
X16426721Y-10431622D01*
M02*
