G04 #@! TF.GenerationSoftware,KiCad,Pcbnew,5.1.9*
G04 #@! TF.CreationDate,2021-08-09T17:38:43+02:00*
G04 #@! TF.ProjectId,led_amplifier,6c65645f-616d-4706-9c69-666965722e6b,1*
G04 #@! TF.SameCoordinates,Original*
G04 #@! TF.FileFunction,Copper,L2,Bot*
G04 #@! TF.FilePolarity,Positive*
%FSLAX45Y45*%
G04 Gerber Fmt 4.5, Leading zero omitted, Abs format (unit mm)*
G04 Created by KiCad (PCBNEW 5.1.9) date 2021-08-09 17:38:43*
%MOMM*%
%LPD*%
G01*
G04 APERTURE LIST*
G04 #@! TA.AperFunction,ComponentPad*
%ADD10O,1.600000X1.600000*%
G04 #@! TD*
G04 #@! TA.AperFunction,ComponentPad*
%ADD11C,1.600000*%
G04 #@! TD*
G04 #@! TA.AperFunction,ComponentPad*
%ADD12O,2.000000X1.905000*%
G04 #@! TD*
G04 #@! TA.AperFunction,ComponentPad*
%ADD13R,2.000000X1.905000*%
G04 #@! TD*
G04 #@! TA.AperFunction,ComponentPad*
%ADD14O,2.600000X2.000000*%
G04 #@! TD*
G04 #@! TA.AperFunction,Conductor*
%ADD15C,1.700000*%
G04 #@! TD*
G04 #@! TA.AperFunction,Conductor*
%ADD16C,2.500000*%
G04 #@! TD*
G04 #@! TA.AperFunction,Conductor*
%ADD17C,2.200000*%
G04 #@! TD*
G04 #@! TA.AperFunction,Conductor*
%ADD18C,2.000000*%
G04 #@! TD*
G04 #@! TA.AperFunction,Conductor*
%ADD19C,2.100000*%
G04 #@! TD*
G04 APERTURE END LIST*
D10*
X15781020Y-9151620D03*
D11*
X15781020Y-8135620D03*
D12*
X16409670Y-9697720D03*
X16409670Y-9443720D03*
D13*
X16409670Y-9189720D03*
G04 #@! TA.AperFunction,ComponentPad*
G36*
G01*
X17784220Y-6837320D02*
X17994220Y-6837320D01*
G75*
G02*
X18019220Y-6862320I0J-25000D01*
G01*
X18019220Y-7012320D01*
G75*
G02*
X17994220Y-7037320I-25000J0D01*
G01*
X17784220Y-7037320D01*
G75*
G02*
X17759220Y-7012320I0J25000D01*
G01*
X17759220Y-6862320D01*
G75*
G02*
X17784220Y-6837320I25000J0D01*
G01*
G37*
G04 #@! TD.AperFunction*
D14*
X17889220Y-7287320D03*
X17889220Y-7637320D03*
X17889220Y-7987320D03*
X17889220Y-8337320D03*
X17889220Y-8687320D03*
X17889220Y-9037320D03*
D13*
X16422370Y-5894070D03*
D12*
X16422370Y-6148070D03*
X16422370Y-6402070D03*
D13*
X16422370Y-6993890D03*
D12*
X16422370Y-7247890D03*
X16422370Y-7501890D03*
D13*
X16410160Y-8081570D03*
D12*
X16410160Y-8335570D03*
X16410160Y-8589570D03*
G04 #@! TA.AperFunction,ComponentPad*
G36*
G01*
X14661740Y-8586140D02*
X14451740Y-8586140D01*
G75*
G02*
X14426740Y-8561140I0J25000D01*
G01*
X14426740Y-8411140D01*
G75*
G02*
X14451740Y-8386140I25000J0D01*
G01*
X14661740Y-8386140D01*
G75*
G02*
X14686740Y-8411140I0J-25000D01*
G01*
X14686740Y-8561140D01*
G75*
G02*
X14661740Y-8586140I-25000J0D01*
G01*
G37*
G04 #@! TD.AperFunction*
D14*
X14556740Y-8136140D03*
X14556740Y-7786140D03*
X14556740Y-7436140D03*
X14556740Y-7086140D03*
D11*
X15485110Y-8135620D03*
D10*
X15485110Y-9151620D03*
D11*
X15787370Y-7153910D03*
D10*
X15787370Y-6137910D03*
X15485110Y-6136640D03*
D11*
X15485110Y-7152640D03*
D15*
X15427100Y-9662160D02*
X15424870Y-9664390D01*
X15436610Y-9676130D02*
X15424870Y-9664390D01*
D16*
X15180310Y-9697720D02*
X14781530Y-9298940D01*
X17889220Y-9037320D02*
X17889220Y-9345930D01*
X16409670Y-9697720D02*
X16134080Y-9697720D01*
X14839390Y-8589570D02*
X14781530Y-8647430D01*
X14781530Y-8488680D02*
X14781530Y-8647430D01*
X16410160Y-8589570D02*
X16049700Y-8589570D01*
X16422370Y-7501890D02*
X16049700Y-7874560D01*
X16422370Y-6537640D02*
X16422370Y-6402070D01*
X16049700Y-6910310D02*
X16049700Y-5807150D01*
X16049700Y-5807150D02*
X15965170Y-5722620D01*
X16049700Y-5807150D02*
X16026840Y-5807150D01*
X15586150Y-5807150D02*
X15415255Y-5636255D01*
X15873730Y-5631180D02*
X16049700Y-5807150D01*
X15410180Y-5631180D02*
X15873730Y-5631180D01*
X14284960Y-5631180D02*
X14265910Y-5650230D01*
X17889220Y-9037320D02*
X17889220Y-9721850D01*
X17889220Y-9721850D02*
X17783810Y-9827260D01*
X14627225Y-9396095D02*
X14627225Y-8493125D01*
X14627225Y-8493125D02*
X14781530Y-8647430D01*
X17783810Y-9714230D02*
X17652365Y-9582785D01*
X17783810Y-9827260D02*
X17783810Y-9714230D01*
X17889220Y-9345930D02*
X17652365Y-9582785D01*
X17652365Y-9582785D02*
X17537430Y-9697720D01*
X17889220Y-9037320D02*
X17678400Y-9037320D01*
X17678400Y-9037320D02*
X17537430Y-9178290D01*
X17705070Y-9345930D02*
X17537430Y-9178290D01*
X17889220Y-9345930D02*
X17705070Y-9345930D01*
X17705070Y-9221470D02*
X17889220Y-9037320D01*
X17705070Y-9345930D02*
X17705070Y-9221470D01*
X17537430Y-9476740D02*
X17537430Y-9565640D01*
X17537430Y-9476740D02*
X17537430Y-9697720D01*
X17537430Y-9178290D02*
X17537430Y-9476740D01*
X17537430Y-9565640D02*
X17405350Y-9697720D01*
X17537430Y-9697720D02*
X17405350Y-9697720D01*
X17405350Y-9697720D02*
X17063720Y-9697720D01*
X16319154Y-9697720D02*
X16134080Y-9697720D01*
X17063720Y-9697720D02*
X16319154Y-9697720D01*
X16049700Y-9580170D02*
X15932150Y-9697720D01*
X16134080Y-9697720D02*
X15932150Y-9697720D01*
X15822220Y-9587790D02*
X15932150Y-9697720D01*
X15552980Y-9594140D02*
X15656560Y-9697720D01*
X15552980Y-8589570D02*
X15552980Y-9594140D01*
X15822220Y-8589570D02*
X15552980Y-8589570D01*
X15932150Y-9697720D02*
X15656560Y-9697720D01*
X15656560Y-9697720D02*
X15180310Y-9697720D01*
X15033550Y-8899450D02*
X14781530Y-8647430D01*
X15822220Y-8589570D02*
X15822220Y-8899450D01*
X15822220Y-8899450D02*
X15033550Y-8899450D01*
X15822220Y-8589570D02*
X15343430Y-8589570D01*
X15683155Y-8760385D02*
X15822220Y-8899450D01*
X15343430Y-8589570D02*
X15172615Y-8760385D01*
X15172615Y-8760385D02*
X15683155Y-8760385D01*
X15172615Y-8760385D02*
X15033550Y-8899450D01*
X15727530Y-9015730D02*
X15822220Y-9110420D01*
X14781530Y-9015730D02*
X15727530Y-9015730D01*
X14781530Y-8647430D02*
X14781530Y-9015730D01*
X14781530Y-9015730D02*
X14781530Y-9298940D01*
X15822220Y-8899450D02*
X15822220Y-9110420D01*
X14781530Y-9015730D02*
X15601800Y-9015730D01*
X15822220Y-9110420D02*
X15822220Y-9236150D01*
X15822220Y-9236150D02*
X15822220Y-9587790D01*
X15604490Y-9298940D02*
X15744750Y-9158680D01*
X14781530Y-9298940D02*
X15604490Y-9298940D01*
X15601800Y-9015730D02*
X15744750Y-9158680D01*
X15744750Y-9158680D02*
X15822220Y-9236150D01*
X15250160Y-9015730D02*
X15822220Y-9587790D01*
X14781530Y-9021050D02*
X15424870Y-9664390D01*
X14781530Y-9015730D02*
X14781530Y-9021050D01*
X15119350Y-9066370D02*
X15119350Y-9015730D01*
X15719870Y-9666890D02*
X15119350Y-9066370D01*
X14781530Y-9015730D02*
X15119350Y-9015730D01*
X15119350Y-9015730D02*
X15250160Y-9015730D01*
X17783810Y-9827260D02*
X15276830Y-9827260D01*
X15276830Y-9827260D02*
X15058390Y-9827260D01*
X14697710Y-9827260D02*
X14521180Y-9650730D01*
X14267180Y-9827260D02*
X14903450Y-9827260D01*
X14265910Y-9825990D02*
X14267180Y-9827260D01*
X15276830Y-9827260D02*
X14903450Y-9827260D01*
X14903450Y-9827260D02*
X14697710Y-9827260D01*
X15989871Y-6073711D02*
X15723310Y-5807150D01*
X16049700Y-5807150D02*
X15723310Y-5807150D01*
X15723310Y-5807150D02*
X15586150Y-5807150D01*
X14502829Y-6769799D02*
X14265910Y-6532880D01*
X14443011Y-6769799D02*
X14916721Y-6769799D01*
X14265910Y-6946900D02*
X14443011Y-6769799D01*
X14265910Y-6946900D02*
X14265910Y-8131810D01*
X14265910Y-6532880D02*
X14265910Y-6946900D01*
X15989871Y-6769799D02*
X14916721Y-6769799D01*
X14916721Y-6769799D02*
X14502829Y-6769799D01*
X14265910Y-6325870D02*
X14265910Y-6532880D01*
X15645280Y-5885180D02*
X15723310Y-5807150D01*
X14265910Y-5650230D02*
X14265910Y-5885180D01*
X15801340Y-5885180D02*
X15989871Y-6073711D01*
X15989871Y-6357049D02*
X15989871Y-6257861D01*
X15989871Y-6357049D02*
X15989871Y-6073711D01*
X15617190Y-5885180D02*
X15801340Y-5885180D01*
X15706789Y-6357049D02*
X15234920Y-5885180D01*
X15989871Y-6357049D02*
X15706789Y-6357049D01*
X14265910Y-5885180D02*
X15234920Y-5885180D01*
X15234920Y-5885180D02*
X15617190Y-5885180D01*
X14461490Y-6046470D02*
X14265910Y-6242050D01*
X15778480Y-6046470D02*
X15617190Y-5885180D01*
X15778480Y-6046470D02*
X14461490Y-6046470D01*
X14265910Y-5885180D02*
X14265910Y-6242050D01*
X14265910Y-6242050D02*
X14265910Y-6325870D01*
X14575790Y-6153150D02*
X14334490Y-6394450D01*
X15885160Y-6153150D02*
X14575790Y-6153150D01*
X15885160Y-6153150D02*
X15778480Y-6046470D01*
X15989871Y-6257861D02*
X15885160Y-6153150D01*
X14334490Y-6394450D02*
X14265910Y-6325870D01*
X14666659Y-6257861D02*
X14432280Y-6492240D01*
X14432280Y-6492240D02*
X14334490Y-6394450D01*
X15989871Y-6769799D02*
X15989871Y-6562789D01*
X15989871Y-6562789D02*
X14971587Y-6562789D01*
X15989871Y-6562789D02*
X15989871Y-6357049D01*
X14848013Y-6769799D02*
X15359951Y-6257861D01*
X15989871Y-6257861D02*
X15359951Y-6257861D01*
X14502829Y-6769799D02*
X14848013Y-6769799D01*
X15359951Y-6257861D02*
X14666659Y-6257861D01*
X15706789Y-6357049D02*
X15071661Y-6357049D01*
X14971587Y-6562789D02*
X14918754Y-6509956D01*
X15071661Y-6357049D02*
X14918754Y-6509956D01*
X14918754Y-6509956D02*
X14666659Y-6257861D01*
X14603794Y-6509956D02*
X14526895Y-6586855D01*
X14918754Y-6509956D02*
X14603794Y-6509956D01*
X14526895Y-6586855D02*
X14432280Y-6492240D01*
X14918690Y-5631180D02*
X14664690Y-5885180D01*
X15410180Y-5631180D02*
X14918690Y-5631180D01*
X14632940Y-5631180D02*
X15391280Y-5631180D01*
X15726410Y-5631180D02*
X14632940Y-5631180D01*
X14632940Y-5631180D02*
X14284960Y-5631180D01*
X14848013Y-6754174D02*
X14603794Y-6509956D01*
X14848013Y-6769799D02*
X14848013Y-6754174D01*
X17395190Y-5631180D02*
X16958310Y-5631180D01*
X17783810Y-9827260D02*
X18230850Y-9827260D01*
X18230850Y-9827260D02*
X18220690Y-9817100D01*
X18197830Y-9037320D02*
X18220690Y-9060180D01*
X17889220Y-9037320D02*
X18197830Y-9037320D01*
X18220690Y-9060180D02*
X18220690Y-6456680D01*
X17889220Y-9037320D02*
X17889220Y-9038590D01*
X17889220Y-9038590D02*
X18220690Y-9370060D01*
X18220690Y-9370060D02*
X18220690Y-9060180D01*
X17889220Y-9037320D02*
X17889220Y-9375140D01*
X18220690Y-9817100D02*
X18220690Y-9706610D01*
X18220690Y-9706610D02*
X18220690Y-9370060D01*
X17783810Y-9822180D02*
X18060035Y-9545955D01*
X17783810Y-9827260D02*
X17783810Y-9822180D01*
X17889220Y-9375140D02*
X18060035Y-9545955D01*
X18060035Y-9545955D02*
X18220690Y-9706610D01*
X16958310Y-5631180D02*
X17622520Y-5631180D01*
X18220690Y-5655310D02*
X18196560Y-5631180D01*
X18196560Y-5631180D02*
X17792700Y-5631180D01*
X17792700Y-5631180D02*
X17622520Y-5631180D01*
X18012410Y-6061710D02*
X18012410Y-6248400D01*
X18220690Y-6456680D02*
X18012410Y-6248400D01*
X17792700Y-5631180D02*
X17792700Y-5842000D01*
X18196560Y-5631180D02*
X18196560Y-5676900D01*
X17912080Y-5961380D02*
X18012410Y-6061710D01*
X17867630Y-5767070D02*
X17792700Y-5842000D01*
X18106390Y-5767070D02*
X17867630Y-5767070D01*
X18196560Y-5676900D02*
X18106390Y-5767070D01*
X18106390Y-5767070D02*
X17912080Y-5961380D01*
X18220690Y-6023610D02*
X17974310Y-6023610D01*
X17974310Y-6023610D02*
X17912080Y-5961380D01*
X18220690Y-6023610D02*
X18220690Y-5655310D01*
X16927830Y-5767070D02*
X16791940Y-5631180D01*
X16791940Y-5631180D02*
X16958310Y-5631180D01*
X17867630Y-5767070D02*
X17056100Y-5767070D01*
X17056100Y-5767070D02*
X16927830Y-5767070D01*
X18204180Y-6667500D02*
X18220690Y-6667500D01*
X18220690Y-6667500D02*
X18220690Y-6023610D01*
X18220690Y-6023610D02*
X18220690Y-6849110D01*
X18220690Y-6849110D02*
X18220690Y-6667500D01*
X18058130Y-6478270D02*
X18204180Y-6667500D01*
X18058130Y-6478270D02*
X17692370Y-6478270D01*
X17122140Y-5908040D02*
X17122140Y-5767070D01*
X17056100Y-5767070D02*
X17122140Y-5767070D01*
X17829530Y-5908040D02*
X17844135Y-5893435D01*
X17792700Y-5842000D02*
X17844135Y-5893435D01*
X17844135Y-5893435D02*
X17912080Y-5961380D01*
X17834610Y-6168390D02*
X17883505Y-6119495D01*
X17382490Y-6168390D02*
X17834610Y-6168390D01*
X17382490Y-6168390D02*
X17122140Y-5908040D01*
X17692370Y-6478270D02*
X17382490Y-6168390D01*
X18012410Y-6248400D02*
X17883505Y-6119495D01*
X17883505Y-6119495D02*
X17395190Y-5631180D01*
X17989550Y-6478270D02*
X17419320Y-5908040D01*
X18058130Y-6478270D02*
X17989550Y-6478270D01*
X17122140Y-5908040D02*
X17419320Y-5908040D01*
X17419320Y-5908040D02*
X17829530Y-5908040D01*
X15236190Y-5631180D02*
X14982190Y-5885180D01*
X15410180Y-5631180D02*
X15236190Y-5631180D01*
X14664690Y-5885180D02*
X14982190Y-5885180D01*
X15410180Y-5631180D02*
X15410180Y-5797550D01*
X15410180Y-5797550D02*
X15322550Y-5885180D01*
X14982190Y-5885180D02*
X15322550Y-5885180D01*
X15322550Y-5885180D02*
X15645280Y-5885180D01*
X14632940Y-5711190D02*
X14458950Y-5885180D01*
X14265910Y-5885180D02*
X14458950Y-5885180D01*
X14632940Y-5631180D02*
X14632940Y-5711190D01*
X14458950Y-5885180D02*
X14664690Y-5885180D01*
X14284960Y-5711190D02*
X14458950Y-5885180D01*
X14284960Y-5631180D02*
X14284960Y-5711190D01*
X16225670Y-5631180D02*
X16314420Y-5631180D01*
X16049700Y-5807150D02*
X16225670Y-5631180D01*
X15726410Y-5631180D02*
X16314420Y-5631180D01*
X16314420Y-5631180D02*
X16791940Y-5631180D01*
X16049700Y-6369760D02*
X16049700Y-5807150D01*
X16319975Y-6640035D02*
X16422370Y-6537640D01*
X16082010Y-6402070D02*
X16049700Y-6369760D01*
X16422370Y-6402070D02*
X16082010Y-6402070D01*
X16049700Y-6910310D02*
X16319975Y-6640035D01*
X18004359Y-6667500D02*
X18204180Y-6667500D01*
X18001058Y-6664199D02*
X18004359Y-6667500D01*
X17656049Y-6664199D02*
X18001058Y-6664199D01*
X14817090Y-9650730D02*
X14849475Y-9618345D01*
X14521180Y-9650730D02*
X14817090Y-9650730D01*
X15058390Y-9827260D02*
X14849475Y-9618345D01*
X14849475Y-9618345D02*
X14627225Y-9396095D01*
X18220690Y-9706610D02*
X18252177Y-9706610D01*
X18249911Y-5684531D02*
X18220690Y-5655310D01*
X18252177Y-9706610D02*
X18249911Y-5684531D01*
X18252177Y-9706610D02*
X18252177Y-9842237D01*
X14282156Y-9842237D02*
X14265910Y-9825990D01*
X14282156Y-9842237D02*
X18252177Y-9842237D01*
X18252177Y-9842237D02*
X18252177Y-9706503D01*
X18249911Y-9839971D02*
X18252177Y-9842237D01*
X14282156Y-9842237D02*
X14282156Y-9960509D01*
X18249911Y-9839971D02*
X18249911Y-9960509D01*
X14254435Y-5661705D02*
X14265910Y-5650230D01*
X14250897Y-9960509D02*
X14254435Y-5661705D01*
X15706789Y-5946689D02*
X15549320Y-5789220D01*
X15706789Y-6357049D02*
X15706789Y-5946689D01*
X15391280Y-5631180D02*
X15549320Y-5789220D01*
X15549320Y-5789220D02*
X15645280Y-5885180D01*
X14709839Y-6769799D02*
X14624050Y-6684010D01*
X14624050Y-6684010D02*
X14526895Y-6586855D01*
X16049700Y-7948601D02*
X16051021Y-7949922D01*
X16051021Y-8247458D02*
X16049700Y-8248779D01*
X16051021Y-7949922D02*
X16051021Y-8247458D01*
X16049700Y-7874560D02*
X16049700Y-7948601D01*
X16422370Y-7501890D02*
X16084700Y-7501890D01*
X16084700Y-7501890D02*
X16049700Y-7466890D01*
X16049700Y-7874560D02*
X16049700Y-7466890D01*
X16049700Y-7466890D02*
X16049700Y-6910310D01*
X16410160Y-8615190D02*
X16049700Y-8975650D01*
X16410160Y-8589570D02*
X16410160Y-8615190D01*
X16049700Y-8589570D02*
X16049700Y-8975650D01*
X14781530Y-8488680D02*
X14431010Y-8488680D01*
X14265910Y-8131810D02*
X14265910Y-8323580D01*
X14431010Y-8488680D02*
X14265910Y-8323580D01*
X14472920Y-8530590D02*
X14823440Y-8530590D01*
X14882420Y-8589570D02*
X14823440Y-8530590D01*
X14823440Y-8530590D02*
X14781530Y-8488680D01*
X14265910Y-8323580D02*
X14265910Y-8596630D01*
X14521180Y-8851900D02*
X14265910Y-8596630D01*
X14706600Y-9540240D02*
X14817090Y-9650730D01*
X14265910Y-9540240D02*
X14265910Y-9825990D01*
X14265910Y-9785350D02*
X14511020Y-9540240D01*
X14265910Y-9825990D02*
X14265910Y-9785350D01*
X14265910Y-9540240D02*
X14511020Y-9540240D01*
X14511020Y-9540240D02*
X14706600Y-9540240D01*
X14386560Y-9345930D02*
X14521180Y-9211310D01*
X14265910Y-9345930D02*
X14386560Y-9345930D01*
X14265910Y-9345930D02*
X14265910Y-9540240D01*
X14521180Y-9650730D02*
X14521180Y-9211310D01*
X14514830Y-9070340D02*
X14521180Y-9063990D01*
X14265910Y-9070340D02*
X14265910Y-9345930D01*
X14521180Y-9211310D02*
X14521180Y-9063990D01*
X14265910Y-9070340D02*
X14514830Y-9070340D01*
X14521180Y-9063990D02*
X14521180Y-8851900D01*
X14364970Y-8920480D02*
X14514830Y-9070340D01*
X14265910Y-8596630D02*
X14265910Y-8920480D01*
X14265910Y-8920480D02*
X14364970Y-8920480D01*
X14265910Y-8920480D02*
X14265910Y-9070340D01*
X15053235Y-8760385D02*
X14823440Y-8530590D01*
X15172615Y-8760385D02*
X15053235Y-8760385D01*
X15811500Y-8530590D02*
X16049700Y-8292390D01*
X16049700Y-8248779D02*
X16049700Y-8292390D01*
X16049700Y-8292390D02*
X16049700Y-8589570D01*
X14265910Y-8323580D02*
X14472920Y-8530590D01*
X15855950Y-8486140D02*
X16049700Y-8292390D01*
X15125700Y-8486140D02*
X14428470Y-8486140D01*
X14556740Y-8486140D02*
X15125700Y-8486140D01*
X14428470Y-8486140D02*
X14265910Y-8323580D01*
X15125700Y-8486140D02*
X15855950Y-8486140D01*
X16410160Y-8589570D02*
X14882420Y-8589570D01*
X16049700Y-8975650D02*
X16049700Y-9500160D01*
X16049700Y-9500160D02*
X16049700Y-9580170D01*
X16189960Y-9640420D02*
X16049700Y-9500160D01*
X16189960Y-9697720D02*
X16189960Y-9640420D01*
X16409670Y-9697720D02*
X16189960Y-9697720D01*
X16167970Y-5648390D02*
X16179999Y-5636361D01*
X16319975Y-6640035D02*
X16167970Y-6488030D01*
X16167970Y-6488030D02*
X16049700Y-6369760D01*
X16164669Y-9960349D02*
X16164509Y-9960509D01*
X16164669Y-6146331D02*
X16164669Y-9960349D01*
X16167970Y-6143030D02*
X16164669Y-6146331D01*
X16167970Y-6143030D02*
X16167970Y-5648390D01*
X16167970Y-6488030D02*
X16167970Y-6143030D01*
X18249911Y-9960509D02*
X16164509Y-9960509D01*
X16164509Y-9960509D02*
X14250897Y-9960509D01*
X17135053Y-9674216D02*
X17087224Y-9674216D01*
X17087224Y-9674216D02*
X17063720Y-9697720D01*
X17537430Y-9271839D02*
X17135053Y-9674216D01*
X17537430Y-9178290D02*
X17537430Y-9271839D01*
D17*
X18249911Y-8835911D02*
X18105822Y-8980000D01*
D16*
X18249911Y-5684531D02*
X18249911Y-8835911D01*
X18249911Y-8835911D02*
X18249911Y-9839971D01*
D17*
X18105822Y-8980000D02*
X17281000Y-8980000D01*
X17135053Y-9613498D02*
X17135053Y-9674216D01*
X17238711Y-9509840D02*
X17135053Y-9613498D01*
X17281000Y-8980000D02*
X17238711Y-9022289D01*
X17537430Y-9271839D02*
X17269261Y-9271839D01*
X17238711Y-9022289D02*
X17238711Y-9241289D01*
X17269261Y-9271839D02*
X17238711Y-9241289D01*
X17238711Y-9241289D02*
X17238711Y-9509840D01*
X17537430Y-9236430D02*
X17281000Y-8980000D01*
X17537430Y-9271839D02*
X17537430Y-9236430D01*
X18181380Y-8980000D02*
X18220690Y-8940690D01*
X17281000Y-8980000D02*
X18181380Y-8980000D01*
D16*
X18220690Y-9706610D02*
X18220690Y-8940690D01*
X18220690Y-8940690D02*
X18220690Y-6849110D01*
D17*
X16791940Y-5800090D02*
X17518425Y-6526575D01*
X16791940Y-5631180D02*
X16791940Y-5800090D01*
D16*
X17518425Y-6526575D02*
X17656049Y-6664199D01*
D17*
X14823440Y-6863080D02*
X14916721Y-6769799D01*
X15032410Y-6784008D02*
X15018201Y-6769799D01*
X15032410Y-8530590D02*
X15032410Y-6784008D01*
D16*
X15032410Y-8530590D02*
X15811500Y-8530590D01*
X14823440Y-8530590D02*
X15032410Y-8530590D01*
X15018201Y-6769799D02*
X14709839Y-6769799D01*
D17*
X15264201Y-6769799D02*
X15264201Y-8463799D01*
X15264201Y-8463799D02*
X15138430Y-8589570D01*
D16*
X15552980Y-8589570D02*
X15138430Y-8589570D01*
X15138430Y-8589570D02*
X14839390Y-8589570D01*
X15989871Y-6769799D02*
X15264201Y-6769799D01*
D17*
X15138430Y-6822168D02*
X15190799Y-6769799D01*
X15138430Y-8589570D02*
X15138430Y-6822168D01*
D16*
X15264201Y-6769799D02*
X15190799Y-6769799D01*
X15190799Y-6769799D02*
X15018201Y-6769799D01*
D17*
X14803141Y-8366141D02*
X14823440Y-8386440D01*
X14265910Y-8323580D02*
X14308471Y-8366141D01*
X14823440Y-8530590D02*
X14823440Y-8386440D01*
X14308471Y-8366141D02*
X14803141Y-8366141D01*
X14823440Y-8386440D02*
X14823440Y-6863080D01*
D16*
X17889220Y-7637320D02*
X17589220Y-7637320D01*
X17589220Y-7637320D02*
X17589220Y-7044920D01*
D18*
X16692370Y-6148070D02*
X16850650Y-6306350D01*
D19*
X16422370Y-6148070D02*
X16692370Y-6148070D01*
D16*
X17589220Y-7044920D02*
X16935150Y-6390850D01*
D19*
X16692370Y-6148070D02*
X16935150Y-6390850D01*
D16*
X16935150Y-6390850D02*
X16850650Y-6306350D01*
X17889220Y-7987320D02*
X17488320Y-7987320D01*
X17065890Y-7564890D02*
X17065890Y-7247890D01*
X17488320Y-7987320D02*
X17065890Y-7564890D01*
D15*
X17065890Y-7247890D02*
X16422370Y-7247890D01*
D16*
X17065890Y-7247890D02*
X16841890Y-7247890D01*
D19*
X16422370Y-7247890D02*
X16841890Y-7247890D01*
D16*
X16807320Y-8337320D02*
X16805570Y-8335570D01*
X17889220Y-8337320D02*
X16807320Y-8337320D01*
D18*
X16410160Y-8335570D02*
X16805570Y-8335570D01*
D16*
X17889220Y-8687320D02*
X17199680Y-8687320D01*
X16983710Y-8903290D02*
X16983710Y-9404215D01*
X17199680Y-8687320D02*
X16983710Y-8903290D01*
D18*
X16944205Y-9443720D02*
X16983710Y-9404215D01*
X16409670Y-9443720D02*
X16944205Y-9443720D01*
D16*
X17889220Y-7284200D02*
X17889220Y-6934200D01*
X17889220Y-7287320D02*
X17889220Y-6937320D01*
M02*
