G04 #@! TF.GenerationSoftware,KiCad,Pcbnew,5.1.9*
G04 #@! TF.CreationDate,2021-08-09T17:38:43+02:00*
G04 #@! TF.ProjectId,led_amplifier,6c65645f-616d-4706-9c69-666965722e6b,1*
G04 #@! TF.SameCoordinates,Original*
G04 #@! TF.FileFunction,Copper,L1,Top*
G04 #@! TF.FilePolarity,Positive*
%FSLAX45Y45*%
G04 Gerber Fmt 4.5, Leading zero omitted, Abs format (unit mm)*
G04 Created by KiCad (PCBNEW 5.1.9) date 2021-08-09 17:38:43*
%MOMM*%
%LPD*%
G01*
G04 APERTURE LIST*
G04 #@! TA.AperFunction,ComponentPad*
%ADD10O,1.600000X1.600000*%
G04 #@! TD*
G04 #@! TA.AperFunction,ComponentPad*
%ADD11C,1.600000*%
G04 #@! TD*
G04 #@! TA.AperFunction,ComponentPad*
%ADD12O,2.000000X1.905000*%
G04 #@! TD*
G04 #@! TA.AperFunction,ComponentPad*
%ADD13R,2.000000X1.905000*%
G04 #@! TD*
G04 #@! TA.AperFunction,ComponentPad*
%ADD14O,2.600000X2.000000*%
G04 #@! TD*
G04 #@! TA.AperFunction,Conductor*
%ADD15C,1.700000*%
G04 #@! TD*
G04 #@! TA.AperFunction,Conductor*
%ADD16C,2.500000*%
G04 #@! TD*
G04 #@! TA.AperFunction,Conductor*
%ADD17C,2.100000*%
G04 #@! TD*
G04 APERTURE END LIST*
D10*
X15781020Y-9151620D03*
D11*
X15781020Y-8135620D03*
G04 #@! TA.AperFunction,SMDPad,CuDef*
G36*
G01*
X15262830Y-7372080D02*
X15262830Y-7497080D01*
G75*
G02*
X15237830Y-7522080I-25000J0D01*
G01*
X15175330Y-7522080D01*
G75*
G02*
X15150330Y-7497080I0J25000D01*
G01*
X15150330Y-7372080D01*
G75*
G02*
X15175330Y-7347080I25000J0D01*
G01*
X15237830Y-7347080D01*
G75*
G02*
X15262830Y-7372080I0J-25000D01*
G01*
G37*
G04 #@! TD.AperFunction*
G04 #@! TA.AperFunction,SMDPad,CuDef*
G36*
G01*
X15555330Y-7372080D02*
X15555330Y-7497080D01*
G75*
G02*
X15530330Y-7522080I-25000J0D01*
G01*
X15467830Y-7522080D01*
G75*
G02*
X15442830Y-7497080I0J25000D01*
G01*
X15442830Y-7372080D01*
G75*
G02*
X15467830Y-7347080I25000J0D01*
G01*
X15530330Y-7347080D01*
G75*
G02*
X15555330Y-7372080I0J-25000D01*
G01*
G37*
G04 #@! TD.AperFunction*
D12*
X16409670Y-9697720D03*
X16409670Y-9443720D03*
D13*
X16409670Y-9189720D03*
G04 #@! TA.AperFunction,ComponentPad*
G36*
G01*
X17784220Y-6837320D02*
X17994220Y-6837320D01*
G75*
G02*
X18019220Y-6862320I0J-25000D01*
G01*
X18019220Y-7012320D01*
G75*
G02*
X17994220Y-7037320I-25000J0D01*
G01*
X17784220Y-7037320D01*
G75*
G02*
X17759220Y-7012320I0J25000D01*
G01*
X17759220Y-6862320D01*
G75*
G02*
X17784220Y-6837320I25000J0D01*
G01*
G37*
G04 #@! TD.AperFunction*
D14*
X17889220Y-7287320D03*
X17889220Y-7637320D03*
X17889220Y-7987320D03*
X17889220Y-8337320D03*
X17889220Y-8687320D03*
X17889220Y-9037320D03*
D13*
X16422370Y-5894070D03*
D12*
X16422370Y-6148070D03*
X16422370Y-6402070D03*
D13*
X16422370Y-6993890D03*
D12*
X16422370Y-7247890D03*
X16422370Y-7501890D03*
D13*
X16410160Y-8081570D03*
D12*
X16410160Y-8335570D03*
X16410160Y-8589570D03*
G04 #@! TA.AperFunction,ComponentPad*
G36*
G01*
X14661740Y-8586140D02*
X14451740Y-8586140D01*
G75*
G02*
X14426740Y-8561140I0J25000D01*
G01*
X14426740Y-8411140D01*
G75*
G02*
X14451740Y-8386140I25000J0D01*
G01*
X14661740Y-8386140D01*
G75*
G02*
X14686740Y-8411140I0J-25000D01*
G01*
X14686740Y-8561140D01*
G75*
G02*
X14661740Y-8586140I-25000J0D01*
G01*
G37*
G04 #@! TD.AperFunction*
D14*
X14556740Y-8136140D03*
X14556740Y-7786140D03*
X14556740Y-7436140D03*
X14556740Y-7086140D03*
D11*
X15485110Y-8135620D03*
D10*
X15485110Y-9151620D03*
D11*
X15787370Y-7153910D03*
D10*
X15787370Y-6137910D03*
X15485110Y-6136640D03*
D11*
X15485110Y-7152640D03*
G04 #@! TA.AperFunction,SMDPad,CuDef*
G36*
G01*
X15131780Y-6735710D02*
X15256780Y-6735710D01*
G75*
G02*
X15281780Y-6760710I0J-25000D01*
G01*
X15281780Y-6823210D01*
G75*
G02*
X15256780Y-6848210I-25000J0D01*
G01*
X15131780Y-6848210D01*
G75*
G02*
X15106780Y-6823210I0J25000D01*
G01*
X15106780Y-6760710D01*
G75*
G02*
X15131780Y-6735710I25000J0D01*
G01*
G37*
G04 #@! TD.AperFunction*
G04 #@! TA.AperFunction,SMDPad,CuDef*
G36*
G01*
X15131780Y-7028210D02*
X15256780Y-7028210D01*
G75*
G02*
X15281780Y-7053210I0J-25000D01*
G01*
X15281780Y-7115710D01*
G75*
G02*
X15256780Y-7140710I-25000J0D01*
G01*
X15131780Y-7140710D01*
G75*
G02*
X15106780Y-7115710I0J25000D01*
G01*
X15106780Y-7053210D01*
G75*
G02*
X15131780Y-7028210I25000J0D01*
G01*
G37*
G04 #@! TD.AperFunction*
G04 #@! TA.AperFunction,SMDPad,CuDef*
G36*
G01*
X15563150Y-7725140D02*
X15563150Y-7850140D01*
G75*
G02*
X15538150Y-7875140I-25000J0D01*
G01*
X15475650Y-7875140D01*
G75*
G02*
X15450650Y-7850140I0J25000D01*
G01*
X15450650Y-7725140D01*
G75*
G02*
X15475650Y-7700140I25000J0D01*
G01*
X15538150Y-7700140D01*
G75*
G02*
X15563150Y-7725140I0J-25000D01*
G01*
G37*
G04 #@! TD.AperFunction*
G04 #@! TA.AperFunction,SMDPad,CuDef*
G36*
G01*
X15270650Y-7725140D02*
X15270650Y-7850140D01*
G75*
G02*
X15245650Y-7875140I-25000J0D01*
G01*
X15183150Y-7875140D01*
G75*
G02*
X15158150Y-7850140I0J25000D01*
G01*
X15158150Y-7725140D01*
G75*
G02*
X15183150Y-7700140I25000J0D01*
G01*
X15245650Y-7700140D01*
G75*
G02*
X15270650Y-7725140I0J-25000D01*
G01*
G37*
G04 #@! TD.AperFunction*
G04 #@! TA.AperFunction,SMDPad,CuDef*
G36*
G01*
X15237730Y-8193140D02*
X15112730Y-8193140D01*
G75*
G02*
X15087730Y-8168140I0J25000D01*
G01*
X15087730Y-8105640D01*
G75*
G02*
X15112730Y-8080640I25000J0D01*
G01*
X15237730Y-8080640D01*
G75*
G02*
X15262730Y-8105640I0J-25000D01*
G01*
X15262730Y-8168140D01*
G75*
G02*
X15237730Y-8193140I-25000J0D01*
G01*
G37*
G04 #@! TD.AperFunction*
G04 #@! TA.AperFunction,SMDPad,CuDef*
G36*
G01*
X15237730Y-8485640D02*
X15112730Y-8485640D01*
G75*
G02*
X15087730Y-8460640I0J25000D01*
G01*
X15087730Y-8398140D01*
G75*
G02*
X15112730Y-8373140I25000J0D01*
G01*
X15237730Y-8373140D01*
G75*
G02*
X15262730Y-8398140I0J-25000D01*
G01*
X15262730Y-8460640D01*
G75*
G02*
X15237730Y-8485640I-25000J0D01*
G01*
G37*
G04 #@! TD.AperFunction*
D15*
X16846550Y-8775700D02*
X16816070Y-8745220D01*
X16565810Y-8745220D02*
X16410160Y-8589570D01*
X16816070Y-8745220D02*
X16565810Y-8745220D01*
X17019270Y-9697720D02*
X16846550Y-9697720D01*
X16936720Y-9697720D02*
X16846550Y-9607550D01*
X17019270Y-9697720D02*
X16936720Y-9697720D01*
X16846550Y-9697720D02*
X16846550Y-9607550D01*
X16846550Y-8775700D02*
X16846550Y-9048750D01*
X17019270Y-8792210D02*
X17019270Y-9221470D01*
X17019270Y-8948420D02*
X16846550Y-8775700D01*
X17019270Y-9697720D02*
X17019270Y-8948420D01*
X16939260Y-9141460D02*
X16939260Y-9028430D01*
X17019270Y-9221470D02*
X16939260Y-9141460D01*
X16939260Y-9028430D02*
X17019270Y-8948420D01*
X16939260Y-9141460D02*
X16846550Y-9048750D01*
X16846550Y-9484360D02*
X17019270Y-9311640D01*
X16846550Y-9697720D02*
X16846550Y-9484360D01*
X17019270Y-9311640D02*
X17019270Y-9221470D01*
X16846550Y-9697720D02*
X16915130Y-9697720D01*
X17019270Y-9697720D02*
X17019270Y-9593580D01*
X16915130Y-9697720D02*
X17019270Y-9593580D01*
X16846550Y-9525000D02*
X16846550Y-9484360D01*
X17019270Y-9697720D02*
X16846550Y-9525000D01*
X17019270Y-9363710D02*
X16846550Y-9190990D01*
X16846550Y-9607550D02*
X16846550Y-9190990D01*
X16846550Y-9190990D02*
X16846550Y-8775700D01*
X17198340Y-9697720D02*
X17019270Y-9697720D01*
X17115790Y-9697720D02*
X17019270Y-9601200D01*
X17019270Y-9697720D02*
X17019270Y-9601200D01*
X17198340Y-9697720D02*
X17115790Y-9697720D01*
X17019270Y-9503410D02*
X17019270Y-9461500D01*
X17019270Y-9593580D02*
X17019270Y-9461500D01*
X17019270Y-9461500D02*
X17019270Y-9311640D01*
X17019270Y-9601200D02*
X17019270Y-9503410D01*
X17019270Y-9503410D02*
X17019270Y-9363710D01*
X17099280Y-9541510D02*
X17019270Y-9461500D01*
X17198340Y-9541510D02*
X17099280Y-9541510D01*
X17198340Y-9541510D02*
X17198340Y-9697720D01*
X17044670Y-9389110D02*
X17019270Y-9363710D01*
X17198340Y-9389110D02*
X17044670Y-9389110D01*
X17198340Y-9389110D02*
X17198340Y-9541510D01*
X17044670Y-9196070D02*
X17019270Y-9221470D01*
X17198340Y-9196070D02*
X17044670Y-9196070D01*
X17198340Y-9196070D02*
X17198340Y-9389110D01*
X17040860Y-8970010D02*
X17019270Y-8948420D01*
X17198340Y-8970010D02*
X17040860Y-8970010D01*
X17198340Y-8743950D02*
X17198340Y-8970010D01*
X17198340Y-8970010D02*
X17198340Y-9196070D01*
X17198340Y-8812530D02*
X17040860Y-8970010D01*
X17198340Y-8743950D02*
X17198340Y-8812530D01*
X17040860Y-9038590D02*
X17198340Y-9196070D01*
X17040860Y-8970010D02*
X17040860Y-9038590D01*
X17044670Y-9196070D02*
X17044670Y-9235440D01*
X17043960Y-8589570D02*
X17198340Y-8743950D01*
X16410160Y-8589570D02*
X17043960Y-8589570D01*
X17198340Y-7508240D02*
X17191990Y-7501890D01*
X17043960Y-8589570D02*
X17043960Y-7555940D01*
X17191990Y-7501890D02*
X17098010Y-7501890D01*
X17043960Y-7555940D02*
X17098010Y-7501890D01*
X16816630Y-7507530D02*
X16810990Y-7501890D01*
X16810990Y-7501890D02*
X16422370Y-7501890D01*
X16894810Y-8667750D02*
X16894810Y-7611110D01*
X16816630Y-8589570D02*
X16894810Y-8667750D01*
X16894810Y-8667750D02*
X17019270Y-8792210D01*
X16810990Y-7527290D02*
X16810990Y-7501890D01*
X16894810Y-7611110D02*
X16810990Y-7527290D01*
X16447770Y-7527290D02*
X16422370Y-7501890D01*
X16816630Y-8589570D02*
X16816630Y-7750250D01*
X16816630Y-7750250D02*
X16816630Y-7507530D01*
X16670730Y-7750250D02*
X16422370Y-7501890D01*
X16816630Y-7750250D02*
X16670730Y-7750250D01*
X16816630Y-7750250D02*
X16802810Y-7750250D01*
X16615410Y-7562850D02*
X16615410Y-7527290D01*
X16802810Y-7750250D02*
X16615410Y-7562850D01*
X16810990Y-7527290D02*
X16615410Y-7527290D01*
X16615410Y-7527290D02*
X16447770Y-7527290D01*
X17198340Y-6534150D02*
X17198340Y-7508240D01*
X17066260Y-6402070D02*
X17198340Y-6534150D01*
X17198340Y-7627620D02*
X17198340Y-6743700D01*
X17198340Y-7627620D02*
X17198340Y-7508240D01*
X17198340Y-8743950D02*
X17198340Y-7627620D01*
X16856710Y-6402070D02*
X17066260Y-6402070D01*
X17098010Y-6643370D02*
X17018635Y-6563995D01*
X17198340Y-6743700D02*
X17018635Y-6563995D01*
X16926560Y-6489700D02*
X16935450Y-6480810D01*
X17098010Y-7501890D02*
X16926560Y-7501890D01*
X16935450Y-6480810D02*
X16856710Y-6402070D01*
X16926560Y-7501890D02*
X16810990Y-7501890D01*
X17018635Y-6563995D02*
X16935450Y-6480810D01*
X16810990Y-6488430D02*
X16724630Y-6402070D01*
X16422370Y-6402070D02*
X16724630Y-6402070D01*
X16724630Y-6402070D02*
X16856710Y-6402070D01*
X16504920Y-6402070D02*
X16810990Y-6708140D01*
X16422370Y-6402070D02*
X16504920Y-6402070D01*
X16810990Y-7501890D02*
X16810990Y-6708140D01*
X16422370Y-6402070D02*
X16422370Y-6489700D01*
X16507460Y-6574790D02*
X16810990Y-6574790D01*
X16422370Y-6489700D02*
X16507460Y-6574790D01*
X16810990Y-6708140D02*
X16810990Y-6574790D01*
X16810990Y-6574790D02*
X16810990Y-6488430D01*
X17098010Y-7501890D02*
X17098010Y-7311390D01*
X17098010Y-7311390D02*
X16926560Y-7139940D01*
X16926560Y-7501890D02*
X16926560Y-7139940D01*
X17023080Y-6918960D02*
X16926560Y-6822440D01*
X17098010Y-6918960D02*
X17023080Y-6918960D01*
X17098010Y-6918960D02*
X17098010Y-6643370D01*
X16926560Y-7139940D02*
X16926560Y-6822440D01*
X16926560Y-6822440D02*
X16926560Y-6489700D01*
X17018635Y-6730365D02*
X16926560Y-6822440D01*
X17018635Y-6563995D02*
X17018635Y-6730365D01*
X17098010Y-6968490D02*
X16926560Y-7139940D01*
X17098010Y-6918960D02*
X17098010Y-6968490D01*
X17098010Y-7174230D02*
X17098010Y-7330440D01*
X17098010Y-7330440D02*
X16926560Y-7501890D01*
X17098010Y-7501890D02*
X17098010Y-7174230D01*
X17098010Y-7174230D02*
X17098010Y-6918960D01*
X17067530Y-8743950D02*
X17019270Y-8792210D01*
X17198340Y-8743950D02*
X17067530Y-8743950D01*
X17044670Y-9235440D02*
X17111345Y-9302115D01*
X17111345Y-9302115D02*
X17198340Y-9389110D01*
X17200245Y-9213215D02*
X17111345Y-9302115D01*
X17713325Y-9213215D02*
X17889220Y-9037320D01*
X17889220Y-9037320D02*
X17889220Y-9208770D01*
X17240250Y-9583420D02*
X17198340Y-9541510D01*
X17514570Y-9583420D02*
X17240250Y-9583420D01*
X17392650Y-9583420D02*
X17111345Y-9302115D01*
X17514570Y-9583420D02*
X17392650Y-9583420D01*
X17480280Y-9493250D02*
X17200245Y-9213215D01*
X17604740Y-9493250D02*
X17480280Y-9493250D01*
X17604740Y-9493250D02*
X17514570Y-9583420D01*
X17651730Y-9420860D02*
X17444085Y-9213215D01*
X17677130Y-9420860D02*
X17651730Y-9420860D01*
X17677130Y-9420860D02*
X17604740Y-9493250D01*
X17444085Y-9213215D02*
X17713325Y-9213215D01*
X17760315Y-9337675D02*
X17572355Y-9337675D01*
X17760315Y-9337675D02*
X17677130Y-9420860D01*
X17889220Y-9208770D02*
X17760315Y-9337675D01*
X17616170Y-9116060D02*
X17713325Y-9213215D01*
X17350740Y-9116060D02*
X17616170Y-9116060D01*
X17572355Y-9337675D02*
X17350740Y-9116060D01*
X17492980Y-9420860D02*
X17285335Y-9213215D01*
X17677130Y-9420860D02*
X17492980Y-9420860D01*
X17200245Y-9213215D02*
X17285335Y-9213215D01*
X17285335Y-9213215D02*
X17444085Y-9213215D01*
X17198340Y-9697720D02*
X17875250Y-9697720D01*
X17889220Y-9340850D02*
X17889220Y-9037320D01*
X17889220Y-9683750D02*
X17889220Y-9340850D01*
X17875250Y-9697720D02*
X17889220Y-9683750D01*
X17769840Y-9697720D02*
X17492980Y-9420860D01*
X17875250Y-9697720D02*
X17769840Y-9697720D01*
X17769840Y-9347200D02*
X17760315Y-9337675D01*
X17769840Y-9697720D02*
X17769840Y-9347200D01*
X17889220Y-9037320D02*
X17889220Y-8961120D01*
X17880330Y-8970010D02*
X17198340Y-8970010D01*
X17889220Y-8961120D02*
X17880330Y-8970010D01*
X17875250Y-9697720D02*
X17955260Y-9697720D01*
X17955260Y-9697720D02*
X18045430Y-9607550D01*
D16*
X16409670Y-9697720D02*
X17019270Y-9697720D01*
X16409670Y-9697720D02*
X17955260Y-9697720D01*
X18045430Y-9326880D02*
X18045430Y-9823450D01*
D15*
X18045430Y-9607550D02*
X18045430Y-9326880D01*
D16*
X18045430Y-9823450D02*
X18016220Y-9852660D01*
X15059660Y-9692640D02*
X15059660Y-9425940D01*
X15059660Y-9692640D02*
X15007590Y-9692640D01*
X15038070Y-9425940D02*
X14781530Y-9169400D01*
X14781530Y-9466580D02*
X14781530Y-9169400D01*
X15059660Y-9425940D02*
X15038070Y-9425940D01*
X15058390Y-9204960D02*
X14781530Y-8928100D01*
X15059660Y-9204960D02*
X15058390Y-9204960D01*
X15059660Y-9204960D02*
X15059660Y-9425940D01*
X14781530Y-9169400D02*
X14781530Y-8928100D01*
X14817090Y-8872220D02*
X14781530Y-8836660D01*
X15059660Y-8872220D02*
X15059660Y-9204960D01*
X15059660Y-8872220D02*
X14817090Y-8872220D01*
X14781530Y-8928100D02*
X14781530Y-8836660D01*
X14781530Y-8836660D02*
X14781530Y-8488680D01*
X15059660Y-8766810D02*
X14781530Y-8488680D01*
X15059660Y-8872220D02*
X15059660Y-8766810D01*
X17889220Y-9037320D02*
X17889220Y-9253220D01*
X17889220Y-9253220D02*
X17289780Y-9852660D01*
X17289780Y-9852660D02*
X16857980Y-9852660D01*
X18045430Y-9326880D02*
X18045430Y-8973820D01*
X18041620Y-8970010D02*
X17198340Y-8970010D01*
X18045430Y-8973820D02*
X18041620Y-8970010D01*
X15064740Y-9697720D02*
X15059660Y-9692640D01*
X15421610Y-5642610D02*
X15410180Y-5631180D01*
X15726410Y-5642610D02*
X15421610Y-5642610D01*
X14781530Y-8928100D02*
X14781530Y-8910320D01*
X14254480Y-8383270D02*
X14254480Y-6783070D01*
X14254480Y-6783070D02*
X14409420Y-6628130D01*
X14862810Y-6628130D02*
X15106650Y-6384290D01*
X14782800Y-6628130D02*
X14862810Y-6628130D01*
X14409420Y-6628130D02*
X14782800Y-6628130D01*
X15156180Y-6212840D02*
X15106650Y-6212840D01*
X15106650Y-5934710D02*
X15106650Y-6212840D01*
X15106650Y-6212840D02*
X15106650Y-6384290D01*
X15106650Y-6212840D02*
X15106650Y-6304280D01*
X17289780Y-9852660D02*
X14965680Y-9852660D01*
X14658340Y-9545320D02*
X14658340Y-8787130D01*
X14781530Y-8910320D02*
X14658340Y-8787130D01*
X14965680Y-9852660D02*
X14658340Y-9545320D01*
X14965680Y-9852660D02*
X14856460Y-9852660D01*
X14856460Y-9852660D02*
X14254480Y-9250680D01*
X14254480Y-8383270D02*
X14254480Y-8487410D01*
X14254480Y-9250680D02*
X14254480Y-8912860D01*
X14254480Y-8912860D02*
X14254480Y-8487410D01*
X14254480Y-8912860D02*
X14254480Y-9667240D01*
X14439900Y-8568690D02*
X14385925Y-8514715D01*
X14439900Y-9852660D02*
X14439900Y-8568690D01*
X14658340Y-8787130D02*
X14385925Y-8514715D01*
X14385925Y-8514715D02*
X14254480Y-8383270D01*
X14439900Y-9852660D02*
X14254480Y-9667240D01*
X18045430Y-9193530D02*
X17889220Y-9037320D01*
X18045430Y-9823450D02*
X18045430Y-9193530D01*
X18041620Y-8970010D02*
X18058130Y-8970010D01*
X18058130Y-8970010D02*
X18229580Y-8798560D01*
X18229580Y-8798560D02*
X18229580Y-6713220D01*
X18080355Y-6563995D02*
X17018635Y-6563995D01*
X18229580Y-6713220D02*
X18080355Y-6563995D01*
X18229580Y-6713220D02*
X18229580Y-6300470D01*
X18229580Y-6300470D02*
X18127980Y-6402070D01*
X18229580Y-6300470D02*
X17846040Y-6300470D01*
X15778911Y-5631180D02*
X15410180Y-5631180D01*
X15786022Y-5624069D02*
X15778911Y-5631180D01*
X16810990Y-5681728D02*
X16868649Y-5624069D01*
X16810990Y-6574790D02*
X16810990Y-5681728D01*
X17169639Y-5624069D02*
X16868649Y-5624069D01*
X17066260Y-5821680D02*
X16868649Y-5624069D01*
X16856710Y-6031230D02*
X17066260Y-5821680D01*
X16856710Y-6402070D02*
X16856710Y-6031230D01*
X17374870Y-5829300D02*
X17291685Y-5746115D01*
X17374870Y-6402070D02*
X17066260Y-6402070D01*
X17374870Y-6402070D02*
X17374870Y-5829300D01*
X17291685Y-5746115D02*
X17169639Y-5624069D01*
X17374870Y-6130290D02*
X17066260Y-5821680D01*
X17374870Y-6402070D02*
X17374870Y-6130290D01*
X17726660Y-6181090D02*
X17846040Y-6300470D01*
X17066260Y-6402070D02*
X17066260Y-6181090D01*
X17066260Y-6181090D02*
X17066260Y-5821680D01*
X17634711Y-5624069D02*
X17634711Y-5652261D01*
X18019269Y-5624069D02*
X17634711Y-5624069D01*
X17634711Y-5624069D02*
X17169639Y-5624069D01*
X17934940Y-5952490D02*
X17934940Y-6402070D01*
X17634711Y-5652261D02*
X17934940Y-5952490D01*
X18127980Y-6402070D02*
X17934940Y-6402070D01*
X17934940Y-6402070D02*
X17374870Y-6402070D01*
X18224500Y-5829300D02*
X18229580Y-5834380D01*
X18166080Y-6181090D02*
X18229580Y-6117590D01*
X17510760Y-6181090D02*
X18166080Y-6181090D01*
X17510760Y-6181090D02*
X17726660Y-6181090D01*
X17066260Y-6181090D02*
X17510760Y-6181090D01*
X18229580Y-6300470D02*
X18229580Y-6117590D01*
X18229580Y-6117590D02*
X18025110Y-6117590D01*
X17374870Y-5829300D02*
X17736820Y-5829300D01*
X17736820Y-5829300D02*
X18149570Y-5829300D01*
X17797780Y-6181090D02*
X18149570Y-5829300D01*
X17510760Y-6181090D02*
X17797780Y-6181090D01*
X18149570Y-5829300D02*
X18224500Y-5829300D01*
X17774920Y-6050280D02*
X17866360Y-5958840D01*
X17595850Y-6050280D02*
X17774920Y-6050280D01*
X17595850Y-6050280D02*
X17291685Y-5746115D01*
X17846040Y-6300470D02*
X17595850Y-6050280D01*
X18025110Y-6117590D02*
X17866360Y-5958840D01*
X17866360Y-5958840D02*
X17736820Y-5829300D01*
X18229580Y-8798560D02*
X18229580Y-9784080D01*
X18229580Y-9784080D02*
X18190210Y-9823450D01*
X18045430Y-9823450D02*
X18190210Y-9823450D01*
X18161000Y-9852660D02*
X18190210Y-9823450D01*
X17682210Y-9852660D02*
X18161000Y-9852660D01*
X18016220Y-9852660D02*
X17682210Y-9852660D01*
X17682210Y-9852660D02*
X17289780Y-9852660D01*
X18149570Y-5829300D02*
X18149570Y-5754370D01*
X18149570Y-5754370D02*
X18052415Y-5657215D01*
X18052415Y-5657215D02*
X18019269Y-5624069D01*
X18229580Y-6117590D02*
X18229580Y-5834380D01*
X14409420Y-6628130D02*
X14413230Y-6628130D01*
X14907895Y-6133465D02*
X14947900Y-6093460D01*
X14907895Y-6503035D02*
X14907895Y-6133465D01*
X14907895Y-6503035D02*
X14782800Y-6628130D01*
X15106650Y-6304280D02*
X14907895Y-6503035D01*
X14947900Y-6093460D02*
X15106650Y-5934710D01*
X14782800Y-6628130D02*
X14782800Y-6554470D01*
X14782800Y-6554470D02*
X14634845Y-6406515D01*
X16868649Y-5624069D02*
X16040861Y-5624069D01*
X16040861Y-5624069D02*
X15786022Y-5624069D01*
X14516100Y-5769610D02*
X14511020Y-5764530D01*
X15271750Y-5769610D02*
X14516100Y-5769610D01*
X15271750Y-5769610D02*
X15106650Y-5934710D01*
X15410180Y-5631180D02*
X15271750Y-5769610D01*
X14511020Y-5764530D02*
X14651481Y-5624069D01*
X15045055Y-5873115D02*
X15106650Y-5934710D01*
X14402435Y-5873115D02*
X15045055Y-5873115D01*
X14254480Y-6021070D02*
X14402435Y-5873115D01*
X14402435Y-5873115D02*
X14511020Y-5764530D01*
X14875510Y-6021070D02*
X14947900Y-6093460D01*
X14254480Y-6021070D02*
X14875510Y-6021070D01*
X14516100Y-6021070D02*
X14768195Y-6273165D01*
X14254480Y-6021070D02*
X14516100Y-6021070D01*
X14768195Y-6273165D02*
X14947900Y-6093460D01*
X14254480Y-6263640D02*
X14555470Y-6263640D01*
X14254480Y-6263640D02*
X14254480Y-6021070D01*
X14254480Y-6783070D02*
X14254480Y-6263640D01*
X14555470Y-6263640D02*
X14666595Y-6374765D01*
X14666595Y-6374765D02*
X14768195Y-6273165D01*
X14634845Y-6406515D02*
X14666595Y-6374765D01*
X14254480Y-6272530D02*
X14511655Y-6529705D01*
X14254480Y-6263640D02*
X14254480Y-6272530D01*
X14413230Y-6628130D02*
X14511655Y-6529705D01*
X14511655Y-6529705D02*
X14634845Y-6406515D01*
X14662150Y-9852660D02*
X14262100Y-9852660D01*
X14856460Y-9852660D02*
X14662150Y-9852660D01*
X14662150Y-9852660D02*
X14439900Y-9852660D01*
X14262100Y-8390890D02*
X14254480Y-8383270D01*
X14262100Y-9852660D02*
X14262100Y-8390890D01*
X18161000Y-9852660D02*
X18229580Y-9784080D01*
X14651481Y-5624069D02*
X14966189Y-5624069D01*
X14966189Y-5624069D02*
X16040861Y-5624069D01*
X14254480Y-5638548D02*
X14254480Y-6021070D01*
X14254099Y-5629529D02*
X14268578Y-5644008D01*
X18229580Y-6117590D02*
X18229580Y-5619750D01*
X17667222Y-5619750D02*
X17634711Y-5652261D01*
X14246860Y-5622290D02*
X14973048Y-5622290D01*
X16280130Y-9697720D02*
X16203930Y-9697720D01*
X16409670Y-9697720D02*
X16280130Y-9697720D01*
X16203930Y-9697720D02*
X16094710Y-9588500D01*
X15007590Y-9692640D02*
X14903450Y-9588500D01*
X14903450Y-9588500D02*
X14781530Y-9466580D01*
X18098770Y-5703570D02*
X18145760Y-5703570D01*
X18052415Y-5657215D02*
X18098770Y-5703570D01*
X18145760Y-5703570D02*
X18214239Y-5635091D01*
X18098770Y-5703570D02*
X18229580Y-5834380D01*
X14246860Y-9837420D02*
X14262100Y-9852660D01*
X14246860Y-5622290D02*
X14246860Y-9837420D01*
X18251170Y-9852660D02*
X18161000Y-9852660D01*
X18266410Y-9837420D02*
X18251170Y-9852660D01*
X18266410Y-5656580D02*
X18229580Y-5619750D01*
X18266410Y-9837420D02*
X18266410Y-5656580D01*
X17837150Y-5656580D02*
X17800320Y-5619750D01*
X18266410Y-5656580D02*
X17837150Y-5656580D01*
X17800320Y-5619750D02*
X17667222Y-5619750D01*
X18254980Y-5656580D02*
X18218150Y-5619750D01*
X18266410Y-5656580D02*
X18254980Y-5656580D01*
X18229580Y-5619750D02*
X18218150Y-5619750D01*
X18218150Y-5619750D02*
X17800320Y-5619750D01*
X18232120Y-5622290D02*
X14246860Y-5622290D01*
X18266410Y-5656580D02*
X18232120Y-5622290D01*
X18266410Y-9837420D02*
X18266410Y-9941560D01*
X18266410Y-9941560D02*
X18225770Y-9982200D01*
X18225770Y-9982200D02*
X14229080Y-9982200D01*
X14229080Y-5640070D02*
X14232789Y-5636361D01*
X14229080Y-9982200D02*
X14229080Y-5640070D01*
X15097760Y-9074150D02*
X15097760Y-9697720D01*
X15038070Y-9014460D02*
X15097760Y-9074150D01*
X15097760Y-9697720D02*
X15064740Y-9697720D01*
X15350490Y-9011920D02*
X15038070Y-8699500D01*
X16280130Y-9697720D02*
X15350490Y-9697720D01*
X15350490Y-9697720D02*
X15097760Y-9697720D01*
X15038070Y-8699500D02*
X15038070Y-9014460D01*
X16094710Y-9588500D02*
X15652750Y-9588500D01*
X15652750Y-9588500D02*
X14903450Y-9588500D01*
X15652750Y-9384270D02*
X15424870Y-9156390D01*
X15652750Y-9588500D02*
X15652750Y-9384270D01*
X15892780Y-9386570D02*
X16094710Y-9588500D01*
X15892780Y-9386570D02*
X15892780Y-9004300D01*
X15358110Y-9004300D02*
X15350490Y-9011920D01*
X14651530Y-8488680D02*
X14781530Y-8488680D01*
X15574010Y-6384290D02*
X15675610Y-6282690D01*
X15341600Y-6027420D02*
X15517495Y-5851525D01*
X15341600Y-6384290D02*
X15341600Y-6027420D01*
X15341600Y-6384290D02*
X15574010Y-6384290D01*
X15106650Y-6384290D02*
X15341600Y-6384290D01*
X15726410Y-5642610D02*
X15517495Y-5851525D01*
X15517495Y-5851525D02*
X15156180Y-6212840D01*
X15585440Y-6139180D02*
X15675610Y-6049010D01*
X15675610Y-6282690D02*
X15675610Y-6049010D01*
X15410180Y-6139180D02*
X15585440Y-6139180D01*
X15675610Y-6049010D02*
X15675610Y-5636361D01*
X15726410Y-5815330D02*
X15905379Y-5636361D01*
X15726410Y-6139180D02*
X15726410Y-5815330D01*
X15726410Y-6139180D02*
X15814040Y-6226810D01*
X15814040Y-5664200D02*
X15841879Y-5636361D01*
X15814040Y-6226810D02*
X15814040Y-6343650D01*
X15773400Y-6384290D02*
X15341600Y-6384290D01*
X15814040Y-6343650D02*
X15773400Y-6384290D01*
X15053310Y-9410700D02*
X15038070Y-9425940D01*
X15474950Y-9410700D02*
X15053310Y-9410700D01*
X15474950Y-9410700D02*
X15652750Y-9588500D01*
X15856980Y-9588500D02*
X15652750Y-9384270D01*
X16094710Y-9588500D02*
X15856980Y-9588500D01*
X16094710Y-9206230D02*
X15892780Y-9004300D01*
X16094710Y-9588500D02*
X16094710Y-9206230D01*
X16085820Y-9118600D02*
X15757525Y-8790305D01*
X15756890Y-8790940D02*
X15464790Y-8790940D01*
X16085820Y-9739630D02*
X16183610Y-9837420D01*
X14246860Y-9837420D02*
X16183610Y-9837420D01*
X16085820Y-9118600D02*
X16085820Y-9739630D01*
X16183610Y-9837420D02*
X18266410Y-9837420D01*
X15517495Y-5930265D02*
X15517495Y-5851525D01*
X15726410Y-6139180D02*
X15517495Y-5930265D01*
X16410160Y-8589570D02*
X16816630Y-8589570D01*
X15732760Y-8766810D02*
X15756890Y-8790940D01*
X15059660Y-8766810D02*
X15732760Y-8766810D01*
X15892780Y-9276080D02*
X15621000Y-9004300D01*
X15892780Y-9386570D02*
X15892780Y-9276080D01*
X15892780Y-9004300D02*
X15621000Y-9004300D01*
X15621000Y-9004300D02*
X15358110Y-9004300D01*
X15175230Y-9151620D02*
X15097760Y-9074150D01*
X15781020Y-9151620D02*
X15175230Y-9151620D01*
X15350490Y-9326880D02*
X15175230Y-9151620D01*
X15350490Y-9500870D02*
X15350490Y-9326880D01*
X15350490Y-9697720D02*
X15350490Y-9500870D01*
X15350490Y-9500870D02*
X15350490Y-9011920D01*
X14436090Y-8488680D02*
X14244647Y-8297237D01*
X14781530Y-8488680D02*
X14436090Y-8488680D01*
X15063392Y-8699391D02*
X15665341Y-8699391D01*
X14850141Y-8486140D02*
X15063392Y-8699391D01*
X15665341Y-8699391D02*
X15732760Y-8766810D01*
X14556740Y-8486140D02*
X14850141Y-8486140D01*
X14782800Y-6554470D02*
X14645640Y-6554470D01*
X14395450Y-6804660D02*
X14924279Y-6804660D01*
X14645640Y-6554470D02*
X14395450Y-6804660D01*
X14395450Y-6804660D02*
X14245751Y-6954359D01*
X14924279Y-6680122D02*
X15082442Y-6521959D01*
X14924279Y-6804660D02*
X14924279Y-6680122D01*
X15425168Y-6384290D02*
X15287499Y-6521959D01*
X15773400Y-6384290D02*
X15425168Y-6384290D01*
X15082442Y-6521959D02*
X15287499Y-6521959D01*
X15287499Y-6521959D02*
X15849091Y-6521959D01*
X15814040Y-6486908D02*
X15814040Y-6015990D01*
X15814040Y-6226810D02*
X15814040Y-6015990D01*
X15849091Y-6521959D02*
X15814040Y-6486908D01*
X15814040Y-6015990D02*
X15814040Y-5664200D01*
X15849091Y-5815839D02*
X15853410Y-5811520D01*
X15849091Y-6521959D02*
X15849091Y-5815839D01*
D17*
X15849091Y-5815839D02*
X16040861Y-5624069D01*
D16*
X15212900Y-7786140D02*
X15214400Y-7787640D01*
X14556740Y-7786140D02*
X15212900Y-7786140D01*
X14558300Y-7434580D02*
X14556740Y-7436140D01*
X15206580Y-7434580D02*
X14558300Y-7434580D01*
X15192600Y-7086140D02*
X15194280Y-7084460D01*
X14556740Y-7086140D02*
X15192600Y-7086140D01*
X15174480Y-8136140D02*
X15175230Y-8136890D01*
X14556740Y-8136140D02*
X15174480Y-8136140D01*
X17892000Y-6934000D02*
X17892000Y-7284000D01*
X15194280Y-6791960D02*
X15393670Y-6791960D01*
X15485110Y-6883400D02*
X15485110Y-7152640D01*
X15393670Y-6791960D02*
X15485110Y-6883400D01*
X16123411Y-6629478D02*
X15960929Y-6791960D01*
X15960929Y-6791960D02*
X15393670Y-6791960D01*
X16124415Y-5894070D02*
X16123411Y-5895074D01*
X16422370Y-5894070D02*
X16124415Y-5894070D01*
X16123411Y-5895074D02*
X16123411Y-6629478D01*
X15499080Y-7434580D02*
X15713710Y-7434580D01*
X15787370Y-7360920D02*
X15787370Y-7153910D01*
X15713710Y-7434580D02*
X15787370Y-7360920D01*
X16140838Y-6993890D02*
X15980818Y-7153910D01*
X15980818Y-7153910D02*
X15787370Y-7153910D01*
X16422370Y-6993890D02*
X16140838Y-6993890D01*
D17*
X16064864Y-7083426D02*
X15713710Y-7434580D01*
X16064864Y-7069864D02*
X16064864Y-7083426D01*
X16064864Y-7069864D02*
X16140838Y-6993890D01*
D16*
X15835070Y-8081570D02*
X16410160Y-8081570D01*
X15781020Y-8135620D02*
X15835070Y-8081570D01*
X15781020Y-8135620D02*
X15781020Y-7824470D01*
X15744190Y-7787640D02*
X15506900Y-7787640D01*
X15781020Y-7824470D02*
X15744190Y-7787640D01*
X15175230Y-8429390D02*
X15477890Y-8429390D01*
X15485110Y-8422170D02*
X15485110Y-8135620D01*
X15477890Y-8429390D02*
X15485110Y-8422170D01*
X15485110Y-8422170D02*
X15845320Y-8422170D01*
X16409670Y-8986520D02*
X16409670Y-9189720D01*
X15845320Y-8422170D02*
X16409670Y-8986520D01*
M02*
